<mxfile host="app.diagrams.net" modified="2024-03-14T13:18:53.788Z" agent="Mozilla/5.0 (Windows NT 10.0; Win64; x64) AppleWebKit/537.36 (KHTML, like Gecko) Chrome/122.0.0.0 Safari/537.36" version="23.1.5" etag="kRo89cS9TPqLuaICP2Kb" type="github">
  <diagram name="Seite-1" id="NQFhRwTB2hxnfwaqFamu">
    <mxGraphModel>
      <root>
        <mxCell id="0" />
        <mxCell id="1" parent="0" />
      </root>
    </mxGraphModel>
  </diagram>
</mxfile>
